<svg xmlns="http://www.w3.org/2000/svg" viewBox="0 0 720 240">
  <!-- Velvet Arcana geometric wordmark — matches wordmark_svg.rs procedural paths -->
  <path d="M 36 28 L 70 28 L 100 100 L 130 28 L 164 28 L 110 118 L 90 118 Z" fill="#e8c078" stroke="#f0d8a0" stroke-width="1.2"/>
  <path d="M 180 28 L 268 28 L 268 48 L 208 48 L 208 62 L 256 62 L 256 80 L 208 80 L 208 96 L 268 96 L 268 118 L 180 118 Z" fill="#e8c078" stroke="#f0d8a0" stroke-width="1.2"/>
  <path d="M 284 28 L 314 28 L 314 96 L 370 96 L 370 118 L 284 118 Z" fill="#e8c078" stroke="#f0d8a0" stroke-width="1.2"/>
  <path d="M 386 28 L 420 28 L 450 100 L 480 28 L 514 28 L 460 118 L 440 118 Z" fill="#e8c078" stroke="#f0d8a0" stroke-width="1.2"/>
  <path d="M 530 28 L 618 28 L 618 48 L 558 48 L 558 62 L 606 62 L 606 80 L 558 80 L 558 96 L 618 96 L 618 118 L 530 118 Z" fill="#e8c078" stroke="#f0d8a0" stroke-width="1.2"/>
  <path d="M 634 28 L 708 28 L 708 50 L 686 50 L 686 118 L 656 118 L 656 50 L 634 50 Z" fill="#e8c078" stroke="#f0d8a0" stroke-width="1.2"/>
  <path d="M 40 220 L 90 140 L 140 220 L 116 220 L 90 172 L 64 220 Z" fill="#e8c078" stroke="#f0d8a0" stroke-width="1.2"/>
  <path d="M 68 188 L 112 188 L 112 202 L 68 202 Z" fill="#e8c078" stroke="#f0d8a0" stroke-width="1.2"/>
  <path d="M 160 140 L 190 140 L 190 220 L 160 220 Z" fill="#e8c078" stroke="#f0d8a0" stroke-width="1.2"/>
  <path d="M 190 140 L 250 140 C 280 140 294 156 294 172 C 294 188 280 200 250 200 L 190 200 Z" fill="#e8c078" stroke="#f0d8a0" stroke-width="1.2"/>
  <path d="M 230 200 L 290 220 L 262 220 L 210 204 Z" fill="#e8c078" stroke="#f0d8a0" stroke-width="1.2"/>
  <path d="M 400 156 C 384 140 356 140 340 156 C 324 172 324 200 340 216 C 356 232 384 232 400 216 L 382 200 C 374 208 364 208 356 200 C 348 192 348 180 356 172 C 364 164 374 164 382 172 Z" fill="#e8c078" stroke="#f0d8a0" stroke-width="1.2"/>
  <path d="M 420 220 L 470 140 L 520 220 L 496 220 L 470 172 L 444 220 Z" fill="#e8c078" stroke="#f0d8a0" stroke-width="1.2"/>
  <path d="M 448 188 L 492 188 L 492 202 L 448 202 Z" fill="#e8c078" stroke="#f0d8a0" stroke-width="1.2"/>
  <path d="M 540 140 L 568 140 L 568 188 L 620 140 L 650 140 L 650 220 L 622 220 L 622 172 L 570 220 L 540 220 Z" fill="#e8c078" stroke="#f0d8a0" stroke-width="1.2"/>
  <path d="M 664 220 L 692 140 L 720 220 L 700 220 L 692 188 L 684 220 Z" fill="#e8c078" stroke="#f0d8a0" stroke-width="1.2"/>
  <path d="M 682 188 L 702 188 L 702 200 L 682 200 Z" fill="#e8c078" stroke="#f0d8a0" stroke-width="1.2"/>
</svg>
